<?xml version="1.0" encoding="UTF-8" standalone="no"?><!DOCTYPE svg PUBLIC "-//W3C//DTD SVG 1.1//EN" "http://www.w3.org/Graphics/SVG/1.1/DTD/svg11.dtd"><!-- Generated by graphviz version 2.40.1 (20161225.0304)
 --><!-- Title: my_graphe Pages: 1 --><svg xmlns="http://www.w3.org/2000/svg" xmlns:xlink="http://www.w3.org/1999/xlink" width="2461pt" height="802pt" viewBox="0.00 0.00 2461.13 801.80">
<g id="graph0" class="graph" transform="scale(1 1) rotate(0) translate(4 797.8)">
<title>my_graphe</title>
<polygon fill="#ffffff" stroke="transparent" points="-4,4 -4,-797.8 2457.1331,-797.8 2457.1331,4 -4,4"/>
<!-- h -->
<g id="node1" class="node">
<title>h</title>
<ellipse fill="none" stroke="#000000" cx="78.6351" cy="-354.8" rx="78.7705" ry="18"/>
<text text-anchor="middle" x="78.6351" y="-350.6" font-family="Times,serif" font-size="14.00" fill="#000000">Здоров</text>
</g>
<!-- w -->
<g id="node2" class="node">
<title>w</title>
<ellipse fill="none" stroke="#000000" cx="739.9751" cy="-502.8" rx="80.6891" ry="18"/>
<text text-anchor="middle" x="739.9751" y="-498.6" font-family="Times,serif" font-size="14.00" fill="#000000">Тяжран</text>
</g>
<!-- h&#45;&gt;w -->
<g id="edge1" class="edge">
<title>h-&gt;w</title>
<path fill="none" stroke="#000000" d="M82.8495,-373.0297C101.449,-453.4827 175.2702,-772.8 175.2702,-772.8 175.2702,-772.8 521.2046,-772.8 521.2046,-772.8 521.2046,-772.8 664.4364,-596.0276 719.11,-528.5512"/>
<polygon fill="#000000" stroke="#000000" points="722.0449,-530.4885 725.621,-520.5155 716.6061,-526.0817 722.0449,-530.4885"/>
<text text-anchor="middle" x="348.2374" y="-777" font-family="Times,serif" font-size="14.00" fill="#000000">Урон при выходе из духа</text>
</g>
<!-- h&#45;&gt;w -->
<g id="edge2" class="edge">
<title>h-&gt;w</title>
<path fill="none" stroke="#000000" d="M83.231,-372.7774C102.4355,-447.8981 175.2702,-732.8 175.2702,-732.8 175.2702,-732.8 521.2046,-732.8 521.2046,-732.8 521.2046,-732.8 659.2682,-587.6497 716.0369,-527.967"/>
<polygon fill="#000000" stroke="#000000" points="718.8159,-530.1238 723.1718,-520.4658 713.7438,-525.2994 718.8159,-530.1238"/>
<text text-anchor="middle" x="348.2374" y="-737" font-family="Times,serif" font-size="14.00" fill="#000000">Урон при выходе из дрона</text>
</g>
<!-- h&#45;&gt;w -->
<g id="edge4" class="edge">
<title>h-&gt;w</title>
<path fill="none" stroke="#000000" d="M83.8306,-372.9723C103.9028,-443.1784 175.2702,-692.8 175.2702,-692.8 175.2702,-692.8 521.2046,-692.8 521.2046,-692.8 521.2046,-692.8 652.9433,-578.3863 711.962,-527.1291"/>
<polygon fill="#000000" stroke="#000000" points="714.5308,-529.5339 719.7859,-520.3342 709.9408,-524.2488 714.5308,-529.5339"/>
<text text-anchor="middle" x="348.2374" y="-697" font-family="Times,serif" font-size="14.00" fill="#000000">Первая стадия голода</text>
</g>
<!-- h&#45;&gt;w -->
<g id="edge9" class="edge">
<title>h-&gt;w</title>
<path fill="none" stroke="#000000" d="M84.5346,-372.9926C105.5155,-437.6928 175.2702,-652.8 175.2702,-652.8 175.2702,-652.8 521.2046,-652.8 521.2046,-652.8 521.2046,-652.8 644.945,-567.9574 706.3016,-525.8883"/>
<polygon fill="#000000" stroke="#000000" points="708.6111,-528.5485 714.8794,-520.0069 704.6526,-522.7752 708.6111,-528.5485"/>
<text text-anchor="middle" x="348.2374" y="-657" font-family="Times,serif" font-size="14.00" fill="#000000">Дампшок</text>
</g>
<!-- h&#45;&gt;w -->
<g id="edge36" class="edge">
<title>h-&gt;w</title>
<path fill="none" stroke="#000000" d="M85.8985,-372.7638C108.3721,-428.346 175.2702,-593.8 175.2702,-593.8 175.2702,-593.8 521.2046,-593.8 521.2046,-593.8 521.2046,-593.8 627.6647,-549.5168 692.0543,-522.7332"/>
<polygon fill="#000000" stroke="#000000" points="693.729,-525.8274 701.6179,-518.7551 691.0406,-519.3642 693.729,-525.8274"/>
<text text-anchor="middle" x="348.2374" y="-598" font-family="Times,serif" font-size="14.00" fill="#000000">Отметка о ранении</text>
</g>
<!-- cd -->
<g id="node3" class="node">
<title>cd</title>
<ellipse fill="none" stroke="#000000" cx="1824.8614" cy="-285.8" rx="35.9589" ry="18"/>
<text text-anchor="middle" x="1824.8614" y="-281.6" font-family="Times,serif" font-size="14.00" fill="#000000">КС</text>
</g>
<!-- h&#45;&gt;cd -->
<g id="edge5" class="edge">
<title>h-&gt;cd</title>
<path fill="none" stroke="#000000" d="M111.6212,-338.4154C139.6156,-324.5101 175.2702,-306.8 175.2702,-306.8 175.2702,-306.8 958.7456,-285.8 958.7456,-285.8 958.7456,-285.8 1599.0644,-285.8 1778.5776,-285.8"/>
<polygon fill="#000000" stroke="#000000" points="1778.7482,-289.3001 1788.7482,-285.8 1778.7482,-282.3001 1778.7482,-289.3001"/>
<text text-anchor="middle" x="739.9751" y="-302" font-family="Times,serif" font-size="14.00" fill="#000000">Вторая стадия голода</text>
</g>
<!-- h&#45;&gt;cd -->
<g id="edge7" class="edge">
<title>h-&gt;cd</title>
<path fill="none" stroke="#000000" d="M105.5534,-337.8081C134.1469,-319.7587 175.2702,-293.8 175.2702,-293.8 175.2702,-293.8 539.2046,-266 539.2046,-266 539.2046,-266 940.7456,-266 940.7456,-266 940.7456,-266 1597.2106,-280.7017 1778.8016,-284.7685"/>
<polygon fill="#000000" stroke="#000000" points="1778.756,-288.2682 1788.8319,-284.9931 1778.9128,-281.27 1778.756,-288.2682"/>
<text text-anchor="middle" x="739.9751" y="-271" font-family="Times,serif" font-size="14.00" fill="#000000">Укус HMHVV</text>
</g>
<!-- h&#45;&gt;cd -->
<g id="edge10" class="edge">
<title>h-&gt;cd</title>
<path fill="none" stroke="#000000" d="M97.2673,-337.2543C125.3484,-310.8107 175.2702,-263.8 175.2702,-263.8 175.2702,-263.8 539.2046,-246 539.2046,-246 539.2046,-246 940.7456,-246 940.7456,-246 940.7456,-246 1633.4238,-262.8 1633.4238,-262.8 1633.4238,-262.8 1722.9866,-273.5604 1779.5919,-280.3612"/>
<polygon fill="#000000" stroke="#000000" points="1779.4027,-283.8635 1789.7488,-281.5814 1780.2378,-276.9135 1779.4027,-283.8635"/>
<text text-anchor="middle" x="739.9751" y="-251" font-family="Times,serif" font-size="14.00" fill="#000000">Последняя стадия зависимости</text>
</g>
<!-- h&#45;&gt;cd -->
<g id="edge25" class="edge">
<title>h-&gt;cd</title>
<path fill="none" stroke="#000000" d="M94.1612,-336.9659C121.4777,-305.5888 175.2702,-243.8 175.2702,-243.8 175.2702,-243.8 539.2046,-226 539.2046,-226 539.2046,-226 940.7456,-226 940.7456,-226 940.7456,-226 1633.4238,-242.8 1633.4238,-242.8 1633.4238,-242.8 1725.4104,-263.4617 1781.8562,-276.1403"/>
<polygon fill="#000000" stroke="#000000" points="1781.4282,-279.6313 1791.9521,-278.408 1782.9623,-272.8015 1781.4282,-279.6313"/>
<text text-anchor="middle" x="739.9751" y="-231" font-family="Times,serif" font-size="14.00" fill="#000000">Максимальные хиты = 0</text>
</g>
<!-- ad -->
<g id="node4" class="node">
<title>ad</title>
<ellipse fill="none" stroke="#000000" cx="2417.1537" cy="-556.8" rx="35.9589" ry="18"/>
<text text-anchor="middle" x="2417.1537" y="-552.6" font-family="Times,serif" font-size="14.00" fill="#000000">АС</text>
</g>
<!-- h&#45;&gt;ad -->
<g id="edge13" class="edge">
<title>h-&gt;ad</title>
<path fill="none" stroke="#000000" d="M82.6035,-372.8278C100.7877,-455.4361 175.2702,-793.8 175.2702,-793.8 175.2702,-793.8 521.2046,-793.8 521.2046,-793.8 521.2046,-793.8 2363.1742,-605.8 2363.1742,-605.8 2363.1742,-605.8 2377.9984,-592.3433 2392.1096,-579.5338"/>
<polygon fill="#000000" stroke="#000000" points="2394.7252,-581.8865 2399.7771,-572.5736 2390.0203,-576.7034 2394.7252,-581.8865"/>
<text text-anchor="middle" x="1296.0847" y="-752" font-family="Times,serif" font-size="14.00" fill="#000000">Передоз урана</text>
</g>
<!-- w&#45;&gt;h -->
<g id="edge12" class="edge">
<title>w-&gt;h</title>
<path fill="none" stroke="#000000" d="M693.5795,-517.6452C629.3614,-538.1931 521.2046,-572.8 521.2046,-572.8 521.2046,-572.8 175.2702,-572.8 175.2702,-572.8 175.2702,-572.8 116.8841,-441.0861 90.8786,-382.4202"/>
<polygon fill="#000000" stroke="#000000" points="93.9602,-380.7353 86.708,-373.0116 87.5608,-383.5721 93.9602,-380.7353"/>
<text text-anchor="middle" x="348.2374" y="-577" font-family="Times,serif" font-size="14.00" fill="#000000">Йод</text>
</g>
<!-- w&#45;&gt;h -->
<g id="edge16" class="edge">
<title>w-&gt;h</title>
<path fill="none" stroke="#000000" d="M671.0551,-512.251C606.9291,-521.0446 521.2046,-532.8 521.2046,-532.8 521.2046,-532.8 175.2702,-532.8 175.2702,-532.8 175.2702,-532.8 120.3125,-431.5689 93.2877,-381.7898"/>
<polygon fill="#000000" stroke="#000000" points="96.28,-379.9656 88.4328,-372.8472 90.1281,-383.3055 96.28,-379.9656"/>
<text text-anchor="middle" x="348.2374" y="-537" font-family="Times,serif" font-size="14.00" fill="#000000">Супер-эффект урана</text>
</g>
<!-- w&#45;&gt;h -->
<g id="edge17" class="edge">
<title>w-&gt;h</title>
<path fill="none" stroke="#000000" d="M659.3668,-501.3726C503.3409,-498.6096 175.2702,-492.8 175.2702,-492.8 175.2702,-492.8 125.0958,-421.1483 97.0549,-381.1045"/>
<polygon fill="#000000" stroke="#000000" points="99.8715,-379.0248 91.2685,-372.8411 94.1376,-383.0401 99.8715,-379.0248"/>
<text text-anchor="middle" x="348.2374" y="-502" font-family="Times,serif" font-size="14.00" fill="#000000">Убер-эффект урана</text>
</g>
<!-- w&#45;&gt;h -->
<g id="edge21" class="edge">
<title>w-&gt;h</title>
<path fill="none" stroke="#000000" d="M671.6547,-493.1814C607.4649,-484.1443 521.2046,-472 521.2046,-472 521.2046,-472 175.2702,-452.8 175.2702,-452.8 175.2702,-452.8 132.2833,-409.2059 103.6507,-380.1689"/>
<polygon fill="#000000" stroke="#000000" points="105.873,-377.4377 96.3595,-372.7747 100.8887,-382.3527 105.873,-377.4377"/>
<text text-anchor="middle" x="348.2374" y="-476" font-family="Times,serif" font-size="14.00" fill="#000000">Лечение автодоком</text>
</g>
<!-- w&#45;&gt;h -->
<g id="edge22" class="edge">
<title>w-&gt;h</title>
<path fill="none" stroke="#000000" d="M694.1137,-487.958C629.9631,-467.1972 521.2046,-432 521.2046,-432 521.2046,-432 175.2702,-412.8 175.2702,-412.8 175.2702,-412.8 142.7816,-393.3005 115.4799,-376.9141"/>
<polygon fill="#000000" stroke="#000000" points="117.2212,-373.8772 106.8458,-371.7319 113.6188,-379.8791 117.2212,-373.8772"/>
<text text-anchor="middle" x="348.2374" y="-436" font-family="Times,serif" font-size="14.00" fill="#000000">Абилка Stand up and fight</text>
</g>
<!-- w&#45;&gt;h -->
<g id="edge27" class="edge">
<title>w-&gt;h</title>
<path fill="none" stroke="#000000" d="M707.223,-486.2121C646.1933,-455.3026 521.2046,-392 521.2046,-392 521.2046,-392 175.2702,-372.8 175.2702,-372.8 175.2702,-372.8 164.3309,-370.7623 149.8134,-368.0582"/>
<polygon fill="#000000" stroke="#000000" points="150.3075,-364.5901 139.8356,-366.1997 149.0256,-371.4718 150.3075,-364.5901"/>
<text text-anchor="middle" x="348.2374" y="-396" font-family="Times,serif" font-size="14.00" fill="#000000">Мастерское воскрешение</text>
</g>
<!-- w&#45;&gt;h -->
<g id="edge30" class="edge">
<title>w-&gt;h</title>
<path fill="none" stroke="#000000" d="M714.8794,-485.5013C657.4154,-445.891 521.2046,-352 521.2046,-352 521.2046,-352 175.2702,-352 175.2702,-352 175.2702,-352 172.2197,-352.0884 167.2026,-352.2338"/>
<polygon fill="#000000" stroke="#000000" points="166.9883,-348.7384 157.0939,-352.5267 167.1911,-355.7355 166.9883,-348.7384"/>
<text text-anchor="middle" x="348.2374" y="-356" font-family="Times,serif" font-size="14.00" fill="#000000">Лечение медкитом</text>
</g>
<!-- w&#45;&gt;h -->
<g id="edge31" class="edge">
<title>w-&gt;h</title>
<path fill="none" stroke="#000000" d="M717.7943,-485.3815C662.1765,-441.7049 521.2046,-331 521.2046,-331 521.2046,-331 175.2702,-331 175.2702,-331 175.2702,-331 160.2553,-334.698 142.0625,-339.1786"/>
<polygon fill="#000000" stroke="#000000" points="141.1947,-335.7877 132.3219,-341.5776 142.8688,-342.5846 141.1947,-335.7877"/>
<text text-anchor="middle" x="348.2374" y="-335" font-family="Times,serif" font-size="14.00" fill="#000000">Спелл I will survive</text>
</g>
<!-- w&#45;&gt;h -->
<g id="edge32" class="edge">
<title>w-&gt;h</title>
<path fill="none" stroke="#000000" d="M720.1749,-485.3502C666.3225,-437.8908 521.2046,-310 521.2046,-310 521.2046,-310 175.2702,-310 175.2702,-310 175.2702,-310 148.2473,-322.5278 122.7814,-334.3338"/>
<polygon fill="#000000" stroke="#000000" points="121.123,-331.2448 113.5226,-338.6262 124.0672,-337.5955 121.123,-331.2448"/>
<text text-anchor="middle" x="348.2374" y="-315" font-family="Times,serif" font-size="14.00" fill="#000000">Спелл Ground Heal</text>
</g>
<!-- w&#45;&gt;cd -->
<g id="edge3" class="edge">
<title>w-&gt;cd</title>
<path fill="none" stroke="#000000" d="M815.8765,-509.045C879.0626,-514.2438 958.7456,-520.8 958.7456,-520.8 958.7456,-520.8 1633.4238,-520.8 1633.4238,-520.8 1633.4238,-520.8 1755.4499,-371.0064 1804.6543,-310.6053"/>
<polygon fill="#000000" stroke="#000000" points="1807.4914,-312.6643 1811.0937,-302.7006 1802.0642,-308.2431 1807.4914,-312.6643"/>
<text text-anchor="middle" x="1296.0847" y="-525" font-family="Times,serif" font-size="14.00" fill="#000000">Жертва в кровавом ритуале</text>
</g>
<!-- w&#45;&gt;cd -->
<g id="edge6" class="edge">
<title>w-&gt;cd</title>
<path fill="none" stroke="#000000" d="M820.4434,-500.8186C1040.0582,-495.4108 1633.4238,-480.8 1633.4238,-480.8 1633.4238,-480.8 1750.5272,-361.5175 1801.5572,-309.5379"/>
<polygon fill="#000000" stroke="#000000" points="1804.3608,-311.6781 1808.8689,-302.0902 1799.3656,-306.7742 1804.3608,-311.6781"/>
<text text-anchor="middle" x="1296.0847" y="-501" font-family="Times,serif" font-size="14.00" fill="#000000">Вторая стадия голода</text>
</g>
<!-- w&#45;&gt;cd -->
<g id="edge8" class="edge">
<title>w-&gt;cd</title>
<path fill="none" stroke="#000000" d="M800.6244,-490.9347C865.3684,-478.2682 958.7456,-460 958.7456,-460 958.7456,-460 1633.4238,-440.8 1633.4238,-440.8 1633.4238,-440.8 1745.1139,-350.3687 1797.8708,-307.6534"/>
<polygon fill="#000000" stroke="#000000" points="1800.2363,-310.2415 1805.8058,-301.2287 1795.8314,-304.8012 1800.2363,-310.2415"/>
<text text-anchor="middle" x="1296.0847" y="-464" font-family="Times,serif" font-size="14.00" fill="#000000">Укус HMHVV</text>
</g>
<!-- w&#45;&gt;cd -->
<g id="edge11" class="edge">
<title>w-&gt;cd</title>
<path fill="none" stroke="#000000" d="M781.1242,-487.226C844.4967,-463.2408 958.7456,-420 958.7456,-420 958.7456,-420 1633.4238,-400.8 1633.4238,-400.8 1633.4238,-400.8 1738.7945,-337.502 1793.1865,-304.8277"/>
<polygon fill="#000000" stroke="#000000" points="1794.9997,-307.8215 1801.7696,-299.6717 1791.395,-301.8209 1794.9997,-307.8215"/>
<text text-anchor="middle" x="1296.0847" y="-424" font-family="Times,serif" font-size="14.00" fill="#000000">Последняя стадия зависимости</text>
</g>
<!-- w&#45;&gt;cd -->
<g id="edge23" class="edge">
<title>w-&gt;cd</title>
<path fill="none" stroke="#000000" d="M769.9355,-485.9827C829.8513,-452.3508 958.7456,-380 958.7456,-380 958.7456,-380 1633.4238,-360.8 1633.4238,-360.8 1633.4238,-360.8 1730.7576,-322.6673 1786.6181,-300.7827"/>
<polygon fill="#000000" stroke="#000000" points="1788.1671,-303.9349 1796.2013,-297.0283 1785.6136,-297.4173 1788.1671,-303.9349"/>
<text text-anchor="middle" x="1296.0847" y="-384" font-family="Times,serif" font-size="14.00" fill="#000000">Прошло полчаса в тяжране</text>
</g>
<!-- w&#45;&gt;cd -->
<g id="edge24" class="edge">
<title>w-&gt;cd</title>
<path fill="none" stroke="#000000" d="M763.3874,-485.3775C819.8242,-443.3796 958.7456,-340 958.7456,-340 958.7456,-340 1633.4238,-320.8 1633.4238,-320.8 1633.4238,-320.8 1723.9522,-304.249 1780.502,-293.9101"/>
<polygon fill="#000000" stroke="#000000" points="1781.4288,-297.2988 1790.6362,-292.0573 1780.1698,-290.4129 1781.4288,-297.2988"/>
<text text-anchor="middle" x="1296.0847" y="-344" font-family="Times,serif" font-size="14.00" fill="#000000">Абилки Добивание, Быстрое добивание, Марадер</text>
</g>
<!-- w&#45;&gt;cd -->
<g id="edge26" class="edge">
<title>w-&gt;cd</title>
<path fill="none" stroke="#000000" d="M759.2259,-485.1573C809.4771,-439.1036 940.7456,-318.8 940.7456,-318.8 940.7456,-318.8 958.7456,-300 958.7456,-300 958.7456,-300 1599.0644,-289.502 1778.5776,-286.5588"/>
<polygon fill="#000000" stroke="#000000" points="1778.807,-290.0556 1788.7482,-286.3921 1778.6921,-283.0566 1778.807,-290.0556"/>
<text text-anchor="middle" x="1296.0847" y="-305" font-family="Times,serif" font-size="14.00" fill="#000000">Максимальные хиты = 0</text>
</g>
<!-- w&#45;&gt;ad -->
<g id="edge14" class="edge">
<title>w-&gt;ad</title>
<path fill="none" stroke="#000000" d="M779.8466,-518.4737C842.9476,-543.2791 958.7456,-588.8 958.7456,-588.8 958.7456,-588.8 1651.4238,-595.8 1651.4238,-595.8 1651.4238,-595.8 1998.299,-595.8 1998.299,-595.8 1998.299,-595.8 2363.1742,-588.8 2363.1742,-588.8 2363.1742,-588.8 2373.6277,-582.603 2385.3342,-575.6632"/>
<polygon fill="#000000" stroke="#000000" points="2387.131,-578.6668 2393.9483,-570.5566 2383.5614,-572.6454 2387.131,-578.6668"/>
<text text-anchor="middle" x="1824.8614" y="-600" font-family="Times,serif" font-size="14.00" fill="#000000">Передоз урана</text>
</g>
<!-- w&#45;&gt;ad -->
<g id="edge19" class="edge">
<title>w-&gt;ad</title>
<path fill="none" stroke="#000000" d="M803.2526,-514.0804C867.8639,-525.5986 958.7456,-541.8 958.7456,-541.8 958.7456,-541.8 2122.839,-553.7729 2370.9833,-556.3251"/>
<polygon fill="#000000" stroke="#000000" points="2371.0674,-559.8261 2381.1029,-556.4292 2371.1395,-552.8265 2371.0674,-559.8261"/>
<text text-anchor="middle" x="1824.8614" y="-556" font-family="Times,serif" font-size="14.00" fill="#000000">Абилка Абсолютная смерть</text>
</g>
<!-- cd&#45;&gt;h -->
<g id="edge18" class="edge">
<title>cd-&gt;h</title>
<path fill="none" stroke="#000000" d="M1806.157,-270.0695C1757.9864,-229.5577 1633.4238,-124.8 1633.4238,-124.8 1633.4238,-124.8 940.7456,-100 940.7456,-100 940.7456,-100 539.2046,-100 539.2046,-100 539.2046,-100 175.2702,-124.8 175.2702,-124.8 175.2702,-124.8 115.804,-266.3348 90.1686,-327.3492"/>
<polygon fill="#000000" stroke="#000000" points="86.8647,-326.1772 86.2179,-336.7523 93.3183,-328.8887 86.8647,-326.1772"/>
<text text-anchor="middle" x="739.9751" y="-105" font-family="Times,serif" font-size="14.00" fill="#000000">Убер-эффект урана</text>
</g>
<!-- cd&#45;&gt;h -->
<g id="edge28" class="edge">
<title>cd-&gt;h</title>
<path fill="none" stroke="#000000" d="M1808.5396,-269.686C1762.2446,-223.9805 1633.4238,-96.8 1633.4238,-96.8 1633.4238,-96.8 940.7456,-80 940.7456,-80 940.7456,-80 539.2046,-80 539.2046,-80 539.2046,-80 175.2702,-97.8 175.2702,-97.8 175.2702,-97.8 113.8901,-261.0397 88.9671,-327.3222"/>
<polygon fill="#000000" stroke="#000000" points="85.6739,-326.1362 85.4303,-336.7283 92.226,-328.5999 85.6739,-326.1362"/>
<text text-anchor="middle" x="739.9751" y="-85" font-family="Times,serif" font-size="14.00" fill="#000000">Мастерское воскрешение</text>
</g>
<!-- cd&#45;&gt;h -->
<g id="edge33" class="edge">
<title>cd-&gt;h</title>
<path fill="none" stroke="#000000" d="M1809.8397,-269.4001C1764.71,-220.1303 1633.4238,-76.8 1633.4238,-76.8 1633.4238,-76.8 940.7456,-60 940.7456,-60 940.7456,-60 539.2046,-60 539.2046,-60 539.2046,-60 175.2702,-77.8 175.2702,-77.8 175.2702,-77.8 112.7728,-256.946 88.2987,-327.0998"/>
<polygon fill="#000000" stroke="#000000" points="84.965,-326.0304 84.9756,-336.6253 91.5743,-328.3362 84.965,-326.0304"/>
<text text-anchor="middle" x="739.9751" y="-65" font-family="Times,serif" font-size="14.00" fill="#000000">Спелл Ground Heal</text>
</g>
<!-- cd&#45;&gt;h -->
<g id="edge34" class="edge">
<title>cd-&gt;h</title>
<path fill="none" stroke="#000000" d="M1810.7846,-268.9611C1766.5744,-216.0764 1633.4238,-56.8 1633.4238,-56.8 1633.4238,-56.8 940.7456,-40 940.7456,-40 940.7456,-40 539.2046,-40 539.2046,-40 539.2046,-40 175.2702,-57.8 175.2702,-57.8 175.2702,-57.8 111.6418,-253.3568 87.6466,-327.1038"/>
<polygon fill="#000000" stroke="#000000" points="84.3005,-326.0762 84.5346,-336.6684 90.957,-328.242 84.3005,-326.0762"/>
<text text-anchor="middle" x="739.9751" y="-45" font-family="Times,serif" font-size="14.00" fill="#000000">Реанимация капсулой</text>
</g>
<!-- cd&#45;&gt;h -->
<g id="edge35" class="edge">
<title>cd-&gt;h</title>
<path fill="none" stroke="#000000" d="M1811.7032,-268.6852C1768.452,-212.429 1633.4238,-36.8 1633.4238,-36.8 1633.4238,-36.8 940.7456,-20 940.7456,-20 940.7456,-20 539.2046,-20 539.2046,-20 539.2046,-20 175.2702,-37.8 175.2702,-37.8 175.2702,-37.8 110.7924,-249.3117 87.1731,-326.7922"/>
<polygon fill="#000000" stroke="#000000" points="83.8164,-325.8005 84.2483,-336.3866 90.5122,-327.8417 83.8164,-325.8005"/>
<text text-anchor="middle" x="739.9751" y="-25" font-family="Times,serif" font-size="14.00" fill="#000000">Реанимация медкартом</text>
</g>
<!-- cd&#45;&gt;ad -->
<g id="edge15" class="edge">
<title>cd-&gt;ad</title>
<path fill="none" stroke="#000000" d="M1851.4617,-297.9708C1946.8381,-341.6097 2271.7741,-490.2824 2381.0006,-540.2584"/>
<polygon fill="#000000" stroke="#000000" points="2379.739,-543.53 2390.2886,-544.508 2382.6514,-537.1647 2379.739,-543.53"/>
<text text-anchor="middle" x="2189.7366" y="-532" font-family="Times,serif" font-size="14.00" fill="#000000">Передоз урана</text>
</g>
<!-- cd&#45;&gt;ad -->
<g id="edge20" class="edge">
<title>cd-&gt;ad</title>
<path fill="none" stroke="#000000" d="M1860.1816,-290.1436C1979.9418,-304.8713 2363.1742,-352 2363.1742,-352 2363.1742,-352 2394.9277,-472.4739 2409.7264,-528.6206"/>
<polygon fill="#000000" stroke="#000000" points="2406.4302,-529.8477 2412.3634,-538.6254 2413.199,-528.0635 2406.4302,-529.8477"/>
<text text-anchor="middle" x="2189.7366" y="-356" font-family="Times,serif" font-size="14.00" fill="#000000">Абилка Абсолютная смерть</text>
</g>
<!-- ad&#45;&gt;h -->
<g id="edge29" class="edge">
<title>ad-&gt;h</title>
<path fill="none" stroke="#000000" d="M2413.2716,-538.8925C2400.8946,-481.7991 2363.1742,-307.8 2363.1742,-307.8 2363.1742,-307.8 1633.4238,0 1633.4238,0 1633.4238,0 958.7456,0 958.7456,0 958.7456,0 175.2702,-17.8 175.2702,-17.8 175.2702,-17.8 109.9041,-245.7542 86.6925,-326.7013"/>
<polygon fill="#000000" stroke="#000000" points="83.2227,-326.104 83.8306,-336.6814 89.9516,-328.0336 83.2227,-326.104"/>
<text text-anchor="middle" x="1296.0847" y="-5" font-family="Times,serif" font-size="14.00" fill="#000000">Мастерское воскрешение</text>
</g>
</g>
</svg>