<?xml version="1.0" encoding="iso-8859-1"?>
<!-- Generator: Adobe Illustrator 17.1.0, SVG Export Plug-In . SVG Version: 6.00 Build 0)  -->
<!DOCTYPE svg PUBLIC "-//W3C//DTD SVG 1.1//EN" "http://www.w3.org/Graphics/SVG/1.1/DTD/svg11.dtd">
<svg version="1.1" id="Capa_1" xmlns="http://www.w3.org/2000/svg" xmlns:xlink="http://www.w3.org/1999/xlink" x="0px" y="0px"
	 viewBox="0 0 489.999 489.999" style="enable-background:new 0 0 489.999 489.999;" xml:space="preserve">
<g>
	<path d="M219.233,256.68V140.831c6.829-2.648,11.691-9.271,11.691-17.023c0-10.075-8.196-18.272-18.271-18.272H142.34
		c-10.077,0-18.274,8.197-18.274,18.272c0,7.752,4.863,14.375,11.693,17.023V256.68c-47.254,17.415-78.65,62.168-78.65,112.935
		c0,66.381,54.004,120.385,120.385,120.385c66.383,0,120.389-54.004,120.389-120.385
		C297.882,318.849,266.486,274.095,219.233,256.68z M142.34,119.535h70.313c2.355,0,4.271,1.917,4.271,4.272
		c0,2.354-1.916,4.269-4.271,4.269H142.34c-2.356,0-4.274-1.915-4.274-4.269C138.065,121.452,139.983,119.535,142.34,119.535z
		 M144.902,268.332c2.895-0.931,4.856-3.624,4.856-6.663V142.076h55.475v119.593c0,3.039,1.963,5.732,4.856,6.663
		c32.292,10.387,56.814,34.97,67.66,65.576c-5.478-1.575-12.322-2.958-20.689-4.218c-21.31-3.206-49.567-4.972-79.568-4.972
		c-29.999,0-58.256,1.766-79.564,4.972c-8.366,1.26-15.209,2.643-20.688,4.219C88.087,303.302,112.609,278.719,144.902,268.332z
		 M277.432,348.428c-12.313,4.274-45.748,9.71-99.939,9.71c-54.187,0-87.623-5.436-99.934-9.71
		c12.31-4.274,45.743-9.709,99.934-9.709C231.686,338.719,265.121,344.153,277.432,348.428z M177.493,475.999
		c-58.66,0-106.385-47.725-106.385-106.385c0-2.893,0.115-5.762,0.343-8.605c6.157,2.415,14.848,4.404,26.478,6.155
		c21.312,3.207,49.568,4.973,79.564,4.973c29.998,0,58.257-1.766,79.568-4.973c11.63-1.751,20.319-3.74,26.478-6.155
		c0.228,2.843,0.343,5.712,0.343,8.605C283.882,428.274,236.156,475.999,177.493,475.999z"/>
	<path d="M104.817,318.157c1.338,1.203,3.012,1.796,4.68,1.796c1.916,0,3.824-0.782,5.206-2.317
		c6.708-7.455,14.424-13.926,22.935-19.232c3.28-2.045,4.281-6.363,2.236-9.643c-2.046-3.281-6.364-4.282-9.645-2.236
		c-9.623,6-18.349,13.316-25.934,21.746C101.71,311.145,101.943,315.571,104.817,318.157z"/>
	<path d="M255.442,404.766c-3.282-2.048-7.599-1.051-9.646,2.228c-2.55,4.082-5.47,8.016-8.679,11.69
		c-2.542,2.913-2.242,7.335,0.67,9.877c1.327,1.158,2.968,1.727,4.601,1.727c1.951,0,3.893-0.811,5.276-2.397
		c3.696-4.234,7.063-8.77,10.005-13.48C259.719,411.132,258.721,406.813,255.442,404.766z"/>
	<path d="M224.63,430.515c-13.551,10.617-29.744,17.146-46.83,18.883c-3.846,0.391-6.646,3.826-6.256,7.672
		c0.366,3.605,3.408,6.293,6.955,6.293c0.236,0,0.477-0.012,0.717-0.037c19.721-2.004,38.411-9.539,54.049-21.79
		c3.043-2.384,3.577-6.784,1.193-9.827C232.074,428.665,227.675,428.13,224.63,430.515z"/>
	<path d="M432.891,141.37c0-10.777-8.768-19.546-19.544-19.546h-78.269c-10.776,0-19.544,8.769-19.544,19.546
		c0,8.455,5.408,15.652,12.938,18.369v284.52c0,25.222,20.519,45.739,45.739,45.739c25.22,0,45.738-20.518,45.738-45.739V159.74
		C427.481,157.023,432.891,149.826,432.891,141.37z M335.078,135.824h78.269c3.057,0,5.544,2.488,5.544,5.546
		c0,3.057-2.487,5.543-5.544,5.543h-78.269c-3.057,0-5.544-2.486-5.544-5.543C329.534,138.313,332.022,135.824,335.078,135.824z
		 M374.212,214.421c-6.25,0-20.73,0.425-31.739,3.911v-57.419h63.478v57.419C394.942,214.846,380.462,214.421,374.212,214.421z
		 M401.27,231.529c-5.476,1.589-14.696,3.107-27.058,3.107s-21.583-1.519-27.059-3.107c5.476-1.59,14.696-3.108,27.059-3.108
		C386.572,228.421,395.794,229.939,401.27,231.529z M374.212,475.999c-17.501,0-31.739-14.238-31.739-31.739V244.726
		c11.009,3.486,25.489,3.911,31.739,3.911s20.73-0.425,31.738-3.911v33.271h-29.748c-3.866,0-7,3.135-7,7c0,3.867,3.134,7,7,7
		h29.748v6.887h-10.019c-3.866,0-7,3.135-7,7c0,3.867,3.134,7,7,7h10.019v6.887h-29.748c-3.866,0-7,3.134-7,7c0,3.866,3.134,7,7,7
		h29.748v6.884h-10.019c-3.866,0-7,3.134-7,7c0,3.866,3.134,7,7,7h10.019v6.891h-29.748c-3.866,0-7,3.134-7,7c0,3.866,3.134,7,7,7
		h29.748v6.887h-10.019c-3.866,0-7,3.134-7,7c0,3.866,3.134,7,7,7h10.019v6.888h-29.748c-3.866,0-7,3.134-7,7c0,3.866,3.134,7,7,7
		h29.748v26.94C405.95,461.761,391.713,475.999,374.212,475.999z"/>
	<g>
		<g>
			<path d="M153.363,42.851c11.813,0,21.422-9.611,21.422-21.426C174.785,9.611,165.176,0,153.363,0s-21.422,9.611-21.422,21.425
				C131.941,33.239,141.551,42.851,153.363,42.851z M153.363,14c4.092,0,7.422,3.331,7.422,7.425c0,4.095-3.33,7.426-7.422,7.426
				c-4.093,0-7.422-3.331-7.422-7.426C145.941,17.331,149.271,14,153.363,14z"/>
			<path d="M153.363,96.003c11.813,0,21.422-9.611,21.422-21.426c0-11.813-9.609-21.425-21.422-21.425s-21.422,9.611-21.422,21.425
				C131.941,86.392,141.551,96.003,153.363,96.003z M153.363,67.152c4.092,0,7.422,3.331,7.422,7.425
				c0,4.095-3.33,7.426-7.422,7.426c-4.093,0-7.422-3.331-7.422-7.426C145.941,70.483,149.271,67.152,153.363,67.152z"/>
		</g>
		<path d="M201.627,69.427c11.813,0,21.422-9.611,21.422-21.426c0-11.813-9.609-21.425-21.422-21.425s-21.422,9.611-21.422,21.425
			C180.205,59.815,189.814,69.427,201.627,69.427z M201.627,40.576c4.092,0,7.422,3.331,7.422,7.425c0,4.095-3.33,7.426-7.422,7.426
			c-4.093,0-7.422-3.331-7.422-7.426C194.205,43.907,197.534,40.576,201.627,40.576z"/>
	</g>
	<path d="M188.455,211.04c3.866,0,7-3.134,7-7v-41.345c0-3.866-3.134-7-7-7c-3.866,0-7,3.134-7,7v41.345
		C181.455,207.906,184.589,211.04,188.455,211.04z"/>
	<path d="M188.455,252.987c3.866,0,7-3.134,7-7v-17.901c0-3.866-3.134-7-7-7c-3.866,0-7,3.134-7,7v17.901
		C181.455,249.854,184.589,252.987,188.455,252.987z"/>
</g>
<g>
</g>
<g>
</g>
<g>
</g>
<g>
</g>
<g>
</g>
<g>
</g>
<g>
</g>
<g>
</g>
<g>
</g>
<g>
</g>
<g>
</g>
<g>
</g>
<g>
</g>
<g>
</g>
<g>
</g>
</svg>
